<?xml version="1.0" encoding="UTF-8"?><svg id="Ebene_2" xmlns="http://www.w3.org/2000/svg" viewBox="0 0 144 144"><defs><style>.cls-1{fill:#232428;}</style></defs><g id="Ebene_1-2"><path class="cls-1" d="m86,58c-7.83-7.83-34.27-21.73-42-14s6.17,34.17,14,42,34.27,21.73,42,14-6.17-34.17-14-42Zm-14,22c-4.42,0-8-3.58-8-8s3.58-8,8-8,8,3.58,8,8-3.58,8-8,8Z"/><path class="cls-1" d="m72,0C32.3,0,0,32.3,0,72s32.3,72,72,72,72-32.3,72-72S111.7,0,72,0Zm4,127.84v-7.84c0-2.21-1.79-4-4-4s-4,1.79-4,4v7.84c-27.69-1.97-49.88-24.15-51.84-51.84h7.84c2.21,0,4-1.79,4-4s-1.79-4-4-4h-7.84c1.97-27.69,24.15-49.88,51.84-51.84v7.84c0,2.21,1.79,4,4,4s4-1.79,4-4v-7.84c27.69,1.97,49.88,24.15,51.84,51.84h-7.84c-2.21,0-4,1.79-4,4s1.79,4,4,4h7.84c-1.97,27.69-24.15,49.88-51.84,51.84Z"/></g></svg>