<?xml version="1.0" encoding="UTF-8"?><svg id="Ebene_2" xmlns="http://www.w3.org/2000/svg" viewBox="0 0 144 144"><defs><style>.cls-1{fill:#232428;}</style></defs><g id="Ebene_1-2"><g><path class="cls-1" d="m135,72c-4.97,0-9,4.03-9,9v26.43c0,10.25-8.31,18.57-18.57,18.57H36.57c-10.25,0-18.57-8.31-18.57-18.57V36.57c0-10.25,8.31-18.57,18.57-18.57h26.43c4.97,0,9-4.03,9-9S67.97,0,63,0h-26.43C16.37,0,0,16.37,0,36.57v70.87c0,20.2,16.37,36.57,36.57,36.57h70.87c20.2,0,36.57-16.37,36.57-36.57v-26.43c0-4.97-4.03-9-9-9Z"/><path class="cls-1" d="m80.58,87.55l55.86-55.86c4.69-4.69,3.42-13.55-2.83-19.8-6.25-6.25-15.11-7.51-19.8-2.83l-55.86,55.86,22.63,22.63Z"/><path class="cls-1" d="m50.88,72c-4.69,4.69-11.31,28.28-8.49,31.11s26.43-3.8,31.11-8.49l1.41-1.41-22.63-22.63-1.41,1.42Z"/></g></g></svg>