<?xml version="1.0" encoding="UTF-8"?><svg id="Ebene_2" xmlns="http://www.w3.org/2000/svg" viewBox="0 0 144 144.1"><defs><style>.cls-1{fill:#232428;}</style></defs><g id="Ebene_1-2"><path class="cls-1" d="m35.88,44.09c1.79,1.63,4.13,2.85,6.62,2.74,2.48-.1,4.83-.95,6.62-2.74l9.5-9.5.05-.05c.96-.96,2.59-.28,2.59,1.07,0,3.81,0,7.62,0,11.43,0,4.99,0,27.98,0,32.97,0,2.45-.03,4.89,0,7.33,0,.04,0,.07,0,.11,0,2.41,1.04,4.92,2.74,6.62s4.28,2.85,6.62,2.74c2.42-.1,4.93-.89,6.62-2.74,1.68-1.83,2.74-4.08,2.74-6.62,0-1.99,0-4,0-5.98v-32.3c0-4.52,0-9.02,0-13.53,0-1.35,1.64-2.03,2.59-1.08l6.06,6.06,3.47,3.47c1.7,1.7,4.22,2.74,6.62,2.74,2.3,0,5.04-1.03,6.62-2.74,1.63-1.79,2.85-4.13,2.74-6.62-.11-2.49-.95-4.83-2.74-6.62h0s-9.5-9.5-9.5-9.5l-15.14-15.14-3.45-3.45s0,0,0,0,0,0,0,0h0c-.75-.76-1.61-1.34-2.53-1.78-1.3-.64-2.74-1.02-4.08-.96-.54.02-1.09.09-1.64.18-.4.07-.8.16-1.18.28-1.28.38-2.47,1.01-3.44,1.93-.13.11-.25.22-.37.34l-9.5,9.5-15.14,15.14-3.47,3.47c-1.7,1.7-2.74,4.22-2.74,6.62,0,2.3,1.03,5.04,2.74,6.62Z"/><path class="cls-1" d="m116.43,144.1H27.57c-15.2,0-27.57-12.37-27.57-27.57v-63.43c0-4.97,4.03-9,9-9s9,4.03,9,9v63.43c0,5.28,4.29,9.57,9.57,9.57h88.87c5.28,0,9.57-4.29,9.57-9.57v-63.43c0-4.97,4.03-9,9-9s9,4.03,9,9v63.43c0,15.2-12.37,27.57-27.57,27.57Z"/></g></svg>