<?xml version="1.0" encoding="UTF-8"?><svg id="Ebene_2" xmlns="http://www.w3.org/2000/svg" viewBox="0 0 143.75 143.74"><defs><style>.cls-1{fill:#232428;}</style></defs><g id="Ebene_1-2"><g><path class="cls-1" d="m54.42,41.2c-3.4-3.4-6.81-6.81-10.21-10.21-3.22-3.22-6.43-6.43-9.64-9.64-.96-.96-.28-2.59,1.07-2.59h13.5c2.4,0,4.92-1.05,6.62-2.75,1.62-1.62,2.84-4.29,2.75-6.62-.11-2.42-.91-4.93-2.75-6.62C53.93,1.08,51.67.02,49.14.02H9.39s-.01,0-.02,0c-.29,0-.59.02-.89.05-.26.03-.51.07-.76.12-.05,0-.09.01-.13.02-.13.03-.25.06-.37.09-1.69.41-3.36,1.26-4.46,2.47C1.11,4.55-.1,6.89,0,9.39c0,.07.01.14.02.2v39.55c0,2.4,1.05,4.92,2.75,6.62,1.62,1.62,4.29,2.84,6.62,2.75,2.42-.11,4.93-.91,6.62-2.75,1.69-1.83,2.75-4.07,2.75-6.62h0s0-13.44,0-13.44v-.03c0-1.35,1.64-2.03,2.59-1.07,2.71,2.71,5.43,5.43,8.15,8.15l10.68,10.68c1.72,1.72,3.42,3.47,5.17,5.17.03.03.05.05.08.08,1.7,1.7,4.21,2.75,6.62,2.75s5.04-1.01,6.62-2.75c1.64-1.78,2.86-4.12,2.75-6.62-.11-2.48-.95-4.84-2.75-6.62-1.4-1.4-2.83-2.83-4.23-4.23Z"/><path class="cls-1" d="m134.36,85.24c-2.42.11-4.93.91-6.62,2.75-1.69,1.83-2.75,4.09-2.75,6.62v13.5c0,1.35-1.64,2.03-2.59,1.07-2.69-2.69-5.39-5.39-8.08-8.08-3.53-3.53-7.05-7.06-10.58-10.58-1.73-1.73-3.43-3.48-5.18-5.18-.03-.03-.05-.05-.08-.08-1.7-1.7-4.21-2.75-6.62-2.75s-5.04,1.01-6.62,2.75c-1.64,1.78-2.86,4.12-2.75,6.62.11,2.48.95,4.82,2.75,6.62,1.4,1.4,2.83,2.83,4.23,4.23l10.11,10.11c3.19,3.19,6.38,6.38,9.57,9.56.96.96.28,2.59-1.07,2.59h-13.47c-2.4,0-4.92,1.05-6.62,2.75-1.62,1.62-2.84,4.29-2.75,6.62.11,2.42.91,4.93,2.75,6.62,1.84,1.69,4.09,2.75,6.62,2.75h0s13.44,0,13.44,0h26.29s0,0,0,0,0,0,0,0h.01c1.06,0,2.08-.2,3.04-.54,1.37-.47,2.66-1.21,3.56-2.21.37-.4.71-.83,1.03-1.29.23-.33.45-.67.64-1.03.64-1.17,1.03-2.46,1.07-3.8,0-.17.03-.33.03-.5v-39.75c0-2.4-1.05-4.92-2.75-6.62-1.62-1.62-4.29-2.84-6.62-2.75Z"/><path class="cls-1" d="m52.03,82.34c-2.48.11-4.82.95-6.62,2.75l-24.06,24.06c-.96.96-2.59.28-2.59-1.07v-13.47c0-2.4-1.05-4.92-2.75-6.62-1.62-1.62-4.29-2.84-6.62-2.75-2.42.11-4.93.91-6.62,2.75-1.69,1.83-2.75,4.09-2.75,6.62v39.39c0,.12-.02.24-.02.36,0,2.29,1.01,5.04,2.75,6.62,1.78,1.64,4.12,2.86,6.62,2.75,0,0,0,0,.01,0,0,0,0,0,0,0h39.75c2.4,0,4.92-1.05,6.62-2.75,1.62-1.62,2.84-4.29,2.75-6.62-.11-2.42-.91-4.93-2.75-6.62-1.83-1.69-4.07-2.75-6.62-2.75h0s-13.44,0-13.44,0h-.07c-1.35,0-2.03-1.64-1.07-2.59l18.84-18.84c1.72-1.72,3.47-3.42,5.17-5.17l.08-.08c1.7-1.7,2.75-4.21,2.75-6.62s-1.01-5.04-2.75-6.62c-1.78-1.64-4.12-2.86-6.62-2.75Z"/><path class="cls-1" d="m91.86,61.22c2.48-.11,4.82-.95,6.62-2.75,1.4-1.4,2.83-2.83,4.23-4.23l10.11-10.11c3.2-3.2,6.4-6.4,9.6-9.6.96-.96,2.59-.28,2.59,1.07v13.54c0,2.4,1.05,4.92,2.75,6.62,1.62,1.62,4.29,2.84,6.62,2.75,2.42-.11,4.93-.91,6.62-2.75,1.69-1.83,2.75-4.07,2.75-6.62h0V9.39c0-1.33-.3-2.61-.84-3.77-.47-1.1-1.12-2.11-1.94-2.86-1.78-1.64-4.12-2.86-6.62-2.75-.07,0-.13.01-.2.02h-39.53c-2.4,0-4.92,1.05-6.62,2.75-1.62,1.62-2.84,4.29-2.75,6.62.11,2.42.91,4.93,2.75,6.62,1.83,1.69,4.09,2.75,6.62,2.75h13.44c1.35,0,2.03,1.64,1.07,2.59-2.68,2.68-5.36,5.36-8.05,8.05-3.53,3.53-7.05,7.06-10.58,10.58-1.73,1.73-3.48,3.43-5.18,5.18-.03.03-.05.05-.08.08-1.7,1.7-2.75,4.21-2.75,6.62s1.01,5.04,2.75,6.62c1.78,1.64,4.12,2.86,6.62,2.75Z"/></g></g></svg>