<?xml version="1.0" encoding="utf-8"?>
<!-- Generator: Adobe Illustrator 27.1.1, SVG Export Plug-In . SVG Version: 6.00 Build 0)  -->
<svg version="1.1" id="Ebene_2_00000121967499450355046520000000117982200901123224_"
	 xmlns="http://www.w3.org/2000/svg" xmlns:xlink="http://www.w3.org/1999/xlink" x="0px" y="0px" viewBox="0 0 144 144"
	 style="enable-background:new 0 0 144 144;" xml:space="preserve">
<style type="text/css">
	.st0{fill:#232428;}
</style>
<g id="Ebene_1-2">
	<g>
		<path class="st0" d="M43.6,114.2H25.4c-0.5,0-1,0.2-1.3,0.5c-0.3,0.4-0.5,0.8-0.5,1.3v5.3c0,0.5,0.2,1,0.5,1.3s0.8,0.5,1.3,0.5
			h6.8v1.4c0,2.1-0.4,3.8-1.2,5.1c-0.8,1.3-1.9,2.3-3.4,2.9s-3,0.9-4.8,0.9c-2.8,0-4.9-0.7-6.6-2.2c-1.6-1.5-2.5-3.9-2.7-7.3
			c-0.1-4.2-0.1-8.4,0-12.5c0.1-3.2,1-5.5,2.6-6.9c1.6-1.4,3.7-2.2,6.4-2.2c1.8,0,3.3,0.3,4.5,0.9c1.1,0.6,2,1.3,2.7,2
			c0.6,0.8,1.1,1.5,1.5,2.3c0.2,0.3,0.4,0.6,0.7,0.8c0.3,0.2,0.7,0.2,1.2,0.2h10.6c0.4,0,0.8-0.1,1.1-0.4c0.3-0.3,0.5-0.6,0.5-1.1
			c0-1.7-0.6-3.5-1.6-5.3s-2.5-3.4-4.4-4.9c-1.9-1.5-4.3-2.7-7-3.6c-2.8-0.9-6-1.3-9.6-1.3c-4.5,0-8.4,0.7-11.7,2.2
			c-3.3,1.5-5.9,3.6-7.7,6.5c-1.8,2.8-2.8,6.3-3,10.4C0,113.3,0,115.5,0,117.9s0,4.5,0.1,6.6c0.2,4.2,1.2,7.7,3,10.6
			s4.4,5.1,7.7,6.6c3.3,1.5,7.2,2.3,11.8,2.3s8.6-0.8,12-2.3c3.5-1.6,6.1-3.8,8-6.7c1.9-2.9,2.8-6.5,2.8-10.6v-8.2
			c0-0.5-0.2-1-0.5-1.3S44.1,114.2,43.6,114.2L43.6,114.2z"/>
		<path class="st0" d="M86.2,94.7c-3-1.2-6.4-1.8-10.4-1.8H55.6c-0.5,0-1,0.2-1.3,0.5c-0.3,0.3-0.5,0.8-0.5,1.3v46.8
			c0,0.5,0.2,0.9,0.5,1.3s0.8,0.5,1.3,0.5h9.8c0.5,0,1-0.2,1.3-0.5c0.4-0.4,0.5-0.8,0.5-1.3v-15.8h8.6c4,0,7.5-0.6,10.4-1.7
			c3-1.1,5.3-2.9,6.9-5.3c1.7-2.4,2.5-5.4,2.5-9.1c0-3.7-0.8-6.8-2.5-9.3C91.5,97.7,89.2,95.9,86.2,94.7z M80.4,114.2
			c-1.2,1.1-2.9,1.6-4.9,1.6H67v-12.9h8.5c2.4,0,4.2,0.6,5.2,1.9c1.1,1.2,1.6,2.8,1.6,4.6C82.2,111.5,81.6,113.1,80.4,114.2
			L80.4,114.2z"/>
		<path class="st0" d="M143.8,140.9l-15.9-23.4l14.7-22.3c0.2-0.2,0.3-0.5,0.3-0.9c0-0.4-0.2-0.7-0.5-1c-0.3-0.3-0.7-0.5-1.1-0.5
			h-10c-0.7,0-1.3,0.2-1.7,0.5c-0.4,0.4-0.7,0.7-0.9,1l-8.8,13l-8.6-13c-0.2-0.3-0.5-0.6-0.9-1s-0.9-0.5-1.7-0.5H98.4
			c-0.4,0-0.8,0.2-1.1,0.5c-0.3,0.3-0.4,0.7-0.4,1c0,0.3,0.1,0.6,0.2,0.9l14.6,22.3L96,140.9c-0.1,0.1-0.2,0.3-0.2,0.4
			s-0.1,0.3-0.1,0.4c0,0.4,0.2,0.7,0.5,1c0.3,0.3,0.7,0.5,1.1,0.5h10.4c0.7,0,1.3-0.2,1.7-0.5c0.4-0.4,0.7-0.7,0.8-0.9l9.5-13.8
			l9.6,13.8c0.1,0.2,0.4,0.5,0.8,0.9s1,0.5,1.7,0.5h10.8c0.4,0,0.8-0.2,1.1-0.5c0.3-0.3,0.4-0.7,0.4-1c0-0.1,0-0.3,0-0.4
			C143.9,141.2,143.9,141,143.8,140.9L143.8,140.9z"/>
		<path class="st0" d="M106.8,36.6c-1.8-1.6-4.1-2.8-6.6-2.7c-2.5,0.1-4.8,0.9-6.6,2.7L84,46.1l-0.1,0c-1,0.9-2.6,0.3-2.6-1.1
			c0-3.8,0-7.6,0-11.4c0-5,0-10,0-14.9c0-2.4,0-6.9,0-9.3c0,0,0-0.1,0-0.1c0-2.4-1-4.9-2.7-6.6S74.4,0,72,0c-2.4,0-4.9,0.9-6.6,2.7
			c-1.7,1.8-2.7,4.1-2.7,6.6c0,2,0,6,0,8v14.3c0,4.5,0,9,0,13.5c0,1.3-1.6,2-2.6,1.1l-6.1-6l-3.5-3.5c-1.7-1.7-4.2-2.7-6.6-2.7
			c-2.3,0-5,1-6.6,2.7c-1.6,1.8-2.8,4.1-2.7,6.6c0.1,2.5,1,4.8,2.7,6.6l0,0l9.5,9.5l15.2,15.1l3.5,3.4l0,0l0,0l0,0
			c0.8,0.8,1.6,1.3,2.5,1.8c1.3,0.6,2.7,1,4.1,1c0.5,0,1.1-0.1,1.6-0.2c0.4-0.1,0.8-0.2,1.2-0.3c1.3-0.4,2.5-1,3.4-1.9
			c0.1-0.1,0.2-0.2,0.4-0.3l9.5-9.5l15.2-15.1l3.5-3.5c1.7-1.7,2.7-4.2,2.7-6.6C109.5,40.9,108.5,38.2,106.8,36.6L106.8,36.6z"/>
	</g>
</g>
</svg>
