<?xml version="1.0" encoding="utf-8"?>
<!-- Generator: Adobe Illustrator 22.1.0, SVG Export Plug-In . SVG Version: 6.00 Build 0)  -->
<svg version="1.1" id="Ebene_1" xmlns="http://www.w3.org/2000/svg" xmlns:xlink="http://www.w3.org/1999/xlink" x="0px" y="0px"
	 viewBox="0 0 48 48" style="enable-background:new 0 0 48 48;" xml:space="preserve">
<style type="text/css">
	.st0{fill:#CCCC66;}
	.st1{fill:#FFFFFF;}
	.st2{fill:none;stroke:#336666;stroke-width:2;stroke-miterlimit:10;}
	.st3{fill:#336666;}
	.st4{fill:#336666;stroke:#336666;stroke-width:3;stroke-miterlimit:10;}
	.st5{fill:none;stroke:#336666;stroke-width:3;stroke-miterlimit:10;}
</style>
<g>
	<path class="st0" d="M6.1,0.1c0,0-6,0-6,6v35.9c0,0,0,6,6,6h35.9c0,0,6,0,6-6V6.1c0,0,0-6-6-6H6.1z"/>
</g>
<polygon class="st1" points="17.5,27 13,31.5 10.3,28.8 5.9,33.3 8.6,35.9 7,37.4 5.6,36 3.3,38.2 4.8,39.7 3.2,41.3 7.5,45.6 
	21.8,31.4 "/>
<g>
	<defs>
		<circle id="SVGID_1_" cx="29.7" cy="18.6" r="13.6"/>
	</defs>
	<clipPath id="SVGID_2_">
		<use xlink:href="#SVGID_1_"  style="overflow:visible;"/>
	</clipPath>
	<use xlink:href="#SVGID_1_"  style="overflow:visible;fill:none;stroke:#FFFFFF;stroke-width:3;stroke-miterlimit:10;"/>
</g>
<path class="st3" d="M34.2,23.1c0,2.5-1.9,4.6-4.3,4.6c-2.4,0-4.3-2.1-4.3-4.6H34.2z"/>
<g>
	<path class="st4" d="M43.3,16.7C42.4,10,36.6,4.9,29.7,4.9c-6.1,0-11.2,3.9-13,9.3l13.6,1.3L43.3,16.7z"/>
	<polyline class="st5" points="7.7,13.4 21.3,14.7 34.2,15.9 	"/>
</g>
<circle class="st3" cx="24.7" cy="18.4" r="1.6"/>
<circle class="st3" cx="34.9" cy="18.4" r="1.6"/>
</svg>
