<?xml version="1.0" encoding="utf-8"?>
<!-- Generator: Adobe Illustrator 22.1.0, SVG Export Plug-In . SVG Version: 6.00 Build 0)  -->
<svg version="1.1" id="Ebene_1" xmlns="http://www.w3.org/2000/svg" xmlns:xlink="http://www.w3.org/1999/xlink" x="0px" y="0px"
	 viewBox="0 0 48 48" style="enable-background:new 0 0 48 48;" xml:space="preserve">
<style type="text/css">
	.st0{fill:#CCCC66;}
	.st1{fill:#FFFFFF;}
	.st2{fill:none;stroke:#336666;stroke-width:2;stroke-miterlimit:10;}
	.st3{fill:#336666;}
	.st4{fill:#336666;stroke:#336666;stroke-width:3;stroke-miterlimit:10;}
	.st5{fill:none;stroke:#336666;stroke-width:3;stroke-miterlimit:10;}
</style>
<g>
	<path class="st0" d="M6.1,0.1c0,0-6,0-6,6v35.9c0,0,0,6,6,6h35.9c0,0,6,0,6-6V6.1c0,0,0-6-6-6H6.1z"/>
</g>
<g>
	<path class="st1" d="M41.3,10.5H7.5v19.9h33.8V10.5z M24.3,33c-5.9,0-11.7,0-17.6,0c-1.5,0-1.8-0.4-1.8-1.8c0-7.2,0-14.4,0-21.6
		c0-1.2,0.5-1.6,1.6-1.6c12,0,24,0,35.9,0c0.9,0,1.4,0.5,1.4,1.4c0,7.4,0,14.8,0,22.2c0,1-0.5,1.5-1.5,1.5C36.3,33,30.3,33,24.3,33"
		/>
	<path class="st1" d="M24.3,38.8c-6.6,0-13.2,0-19.8,0c-1.6,0-2.8-0.9-3.1-2.4c-0.1-0.4-0.1-0.8,0-1.2c0.1-0.6,0.6-1,1.2-1
		c2.6,0,12.3,0,14.6,0c0.4,0,0.6,0.1,0.7,0.5c0.1,0.5,0.5,0.6,0.9,0.6c2.6,0,5.3,0,7.9,0c1,0,2,0,3,0c0.7,0,0.8-0.1,1-0.8
		c0.1-0.3,0.3-0.3,0.6-0.3c1.6,0,11.2,0,14.5,0c1,0,1.4,0.4,1.4,1.4c0,1.9-1.2,3.1-3.1,3.1C37.5,38.8,30.9,38.8,24.3,38.8"/>
</g>
<g>
	<path class="st3" d="M42.2,9.7c-1.5,0-5.5,1.5-7.1,1.5c-6.7,0-9.9,3.9-11.2,3.9c0,0,0,0,0,0c0,0,0,0,0,0c-1.3,0-4.5-3.9-11.2-3.9
		c-1.6,0-5.6-1.5-7.1-1.5c-0.2,0-0.6,0.2-0.6,0.8C5.1,11.2,9.7,24,17.4,24c2.6,0,5.6-0.8,6.5-0.8c0,0,0,0,0,0c0,0,0,0,0,0
		c0.9,0,3.9,0.8,6.5,0.8c7.8,0,12.4-12.8,12.4-13.5C42.8,10,42.5,9.7,42.2,9.7z"/>
	<g>
		<circle class="st0" cx="18.9" cy="18.6" r="1.6"/>
		<circle class="st0" cx="29.2" cy="18.6" r="1.6"/>
	</g>
</g>
</svg>
