<?xml version="1.0" encoding="utf-8"?>
<!-- Generator: Adobe Illustrator 22.1.0, SVG Export Plug-In . SVG Version: 6.00 Build 0)  -->
<svg version="1.1" id="Ebene_1" xmlns="http://www.w3.org/2000/svg" xmlns:xlink="http://www.w3.org/1999/xlink" x="0px" y="0px"
	 viewBox="0 0 48 48" style="enable-background:new 0 0 48 48;" xml:space="preserve">
<style type="text/css">
	.st0{fill:#CCCC66;}
	.st1{fill:#FFFFFF;}
	.st2{fill:none;stroke:#336666;stroke-width:2;stroke-miterlimit:10;}
	.st3{fill:#336666;}
	.st4{fill:#336666;stroke:#336666;stroke-width:3;stroke-miterlimit:10;}
	.st5{fill:none;stroke:#336666;stroke-width:3;stroke-miterlimit:10;}
</style>
<g>
	<path class="st0" d="M6.1,0.1c0,0-6,0-6,6v35.9c0,0,0,6,6,6h35.9c0,0,6,0,6-6V6.1c0,0,0-6-6-6H6.1z"/>
</g>
<polygon class="st1" points="16.6,27.1 12.2,31.5 9.5,28.9 5.1,33.3 7.8,36 6.2,37.5 4.8,36 2.5,38.2 4,39.7 2.4,41.3 6.7,45.7 
	21,31.4 "/>
<g>
	<defs>
		<circle id="SVGID_3_" cx="28.9" cy="18.6" r="13.6"/>
	</defs>
	<clipPath id="SVGID_2_">
		<use xlink:href="#SVGID_3_"  style="overflow:visible;"/>
	</clipPath>
	<use xlink:href="#SVGID_3_"  style="overflow:visible;fill:none;stroke:#FFFFFF;stroke-width:3;stroke-miterlimit:10;"/>
</g>
<path class="st3" d="M47.1,9.7c-1.5,0-5.5,1.5-7.1,1.5c-6.7,0-9.9,3.9-11.2,3.9c0,0,0,0,0,0c0,0,0,0,0,0c-1.3,0-4.5-3.9-11.2-3.9
	c-1.6,0-5.6-1.5-7.1-1.5c-0.2,0-0.6,0.2-0.6,0.8c0,0.7,4.6,13.5,12.4,13.5c2.6,0,5.6-0.8,6.5-0.8c0,0,0,0,0,0c0,0,0,0,0,0
	c0.9,0,3.9,0.8,6.5,0.8c7.8,0,12.4-12.8,12.4-13.5C47.6,10,47.3,9.7,47.1,9.7z"/>
<g>
	<circle class="st0" cx="23.8" cy="18.6" r="1.6"/>
	<circle class="st0" cx="34" cy="18.6" r="1.6"/>
</g>
</svg>
