<?xml version="1.0" encoding="utf-8"?>
<!-- Generator: Adobe Illustrator 22.1.0, SVG Export Plug-In . SVG Version: 6.00 Build 0)  -->
<svg version="1.1" id="Ebene_1" xmlns="http://www.w3.org/2000/svg" xmlns:xlink="http://www.w3.org/1999/xlink" x="0px" y="0px"
	 viewBox="0 0 48 48" style="enable-background:new 0 0 48 48;" xml:space="preserve">
<style type="text/css">
	.st0{fill:#CCCC66;}
	.st1{fill:#FFFFFF;}
	.st2{fill:none;stroke:#336666;stroke-width:2;stroke-miterlimit:10;}
	.st3{fill:#336666;}
	.st4{fill:#336666;stroke:#336666;stroke-width:3;stroke-miterlimit:10;}
	.st5{fill:none;stroke:#336666;stroke-width:3;stroke-miterlimit:10;}
</style>
<g>
	<path class="st0" d="M6.1,0.1c0,0-6,0-6,6v35.9c0,0,0,6,6,6h35.9c0,0,6,0,6-6V6.1c0,0,0-6-6-6H6.1z"/>
</g>
<polygon class="st1" points="39.5,45.5 35.4,40.6 31.2,45.5 31.2,32.4 36.9,31 39.5,27.4 "/>
<g>
	<g>
		<g>
			
				<rect x="27.4" y="24.9" transform="matrix(0.7071 -0.7071 0.7071 0.7071 -7.465 33.3396)" class="st1" width="18.1" height="1.5"/>
		</g>
		<g>
			
				<rect x="20.8" y="21.7" transform="matrix(0.7071 -0.7071 0.7071 0.7071 -6.0313 30.4372)" class="st1" width="25.8" height="1.5"/>
		</g>
		<g>
			
				<rect x="16.5" y="18.6" transform="matrix(0.7071 -0.7071 0.7071 0.7071 -4.6271 27.5226)" class="st1" width="28.7" height="1.5"/>
		</g>
		<g>
			
				<rect x="13.3" y="15.5" transform="matrix(0.7071 -0.7071 0.7071 0.7071 -3.2659 24.59)" class="st1" width="29.4" height="1.5"/>
		</g>
		<g>
			
				<rect x="11.7" y="12.8" transform="matrix(0.7071 -0.7071 0.7071 0.7071 -2.3735 21.4634)" class="st1" width="26" height="1.5"/>
		</g>
		<g>
			
				<rect x="12.8" y="9.5" transform="matrix(0.7071 -0.7071 0.7071 0.7071 -0.8014 18.6181)" class="st1" width="18.5" height="1.5"/>
		</g>
	</g>
</g>
<g>
	<path class="st2" d="M27.9,3.9c0.9,0.7,2.2,0.7,3.1,0c0.9-0.7,2-0.5,2.5,0.5s1.8,1.5,2.9,1.2c1.1-0.3,2,0.3,2.1,1.4
		c0.1,1.1,1.1,2.1,2.2,2.2c1.1,0.1,1.7,1,1.4,2.1c-0.3,1.1,0.2,2.3,1.2,2.9c1,0.5,1.2,1.6,0.5,2.5c-0.7,0.9-0.7,2.2,0,3.1
		c0.7,0.9,0.5,2-0.5,2.5c-1,0.5-1.5,1.8-1.2,2.9c0.3,1.1-0.3,2-1.4,2.1c-1.1,0.1-2.1,1.1-2.2,2.2c-0.1,1.1-1,1.7-2.1,1.4
		c-1.1-0.3-2.3,0.2-2.9,1.2c-0.5,1-1.6,1.2-2.5,0.5c-0.9-0.7-2.2-0.7-3.1,0c-0.9,0.7-2,0.5-2.5-0.5c-0.5-1-1.8-1.5-2.9-1.2
		s-2-0.3-2.1-1.4s-1.1-2.1-2.2-2.2c-1.1-0.1-1.7-1-1.4-2.1s-0.2-2.3-1.2-2.9s-1.2-1.6-0.5-2.5s0.7-2.2,0-3.1c-0.7-0.9-0.5-2,0.5-2.5
		c1-0.5,1.5-1.8,1.2-2.9s0.3-2,1.4-2.1c1.1-0.1,2.1-1.1,2.2-2.2s1-1.7,2.1-1.4s2.3-0.2,2.9-1.2S27,3.2,27.9,3.9z"/>
</g>
<circle class="st3" cx="29.7" cy="18.4" r="3.1"/>
<polygon class="st3" points="17.3,26 12.8,30.5 10.1,27.8 5.7,32.3 8.4,34.9 6.9,36.4 5.4,35 3.2,37.2 4.7,38.7 3,40.3 7.4,44.6 
	21.6,30.4 "/>
</svg>
