<?xml version="1.0" encoding="UTF-8"?><svg id="Ebene_2" xmlns="http://www.w3.org/2000/svg" viewBox="0 0 144 144"><defs><style>.cls-1{fill:#232428;}</style></defs><g id="Ebene_1-2"><path class="cls-1" d="m112.5,81c-9.79,0-18.55,4.49-24.33,11.52l-25.35-12.67c.12-1.1.18-2.22.18-3.35,0-2.13-.21-4.21-.62-6.23l27.73-16.64c5.71,5.78,13.64,9.37,22.39,9.37,17.37,0,31.5-14.13,31.5-31.5S129.87,0,112.5,0s-31.5,14.13-31.5,31.5c0,2.13.22,4.21.62,6.23h0s-27.73,16.64-27.73,16.64c-5.71-5.78-13.64-9.37-22.39-9.37C14.13,45,0,59.13,0,76.5s14.13,31.5,31.5,31.5c9.79,0,18.55-4.49,24.33-11.52l25.35,12.67h0c-.12,1.1-.18,2.22-.18,3.35,0,17.37,14.13,31.5,31.5,31.5s31.5-14.13,31.5-31.5-14.13-31.5-31.5-31.5Zm0-63c7.44,0,13.5,6.06,13.5,13.5s-6.06,13.5-13.5,13.5c-2.08,0-4.03-.48-5.79-1.32-4.55-2.17-7.71-6.81-7.71-12.18,0-1.66.32-3.25.87-4.72,1.92-5.12,6.85-8.78,12.63-8.78ZM31.5,90c-7.44,0-13.5-6.06-13.5-13.5s6.06-13.5,13.5-13.5c2.08,0,4.05.47,5.81,1.32,2.59,1.24,4.74,3.29,6.09,5.82,1.02,1.9,1.6,4.06,1.6,6.36,0,1.65-.3,3.24-.85,4.71-1.04,2.78-2.97,5.14-5.45,6.7-2.08,1.32-4.56,2.09-7.2,2.09Zm81,36c-5.15,0-9.62-2.9-11.9-7.14-1.02-1.9-1.6-4.06-1.6-6.36,0-4.8,2.53-9.01,6.31-11.41,2.08-1.32,4.55-2.09,7.19-2.09,7.44,0,13.5,6.06,13.5,13.5s-6.06,13.5-13.5,13.5Z"/></g></svg>