<svg width="100%" height="100%" viewBox="0 0 32 32" xmlns="http://www.w3.org/2000/svg"><path fill="#fff" d="M25.46 21.73c1.59-1.87 2.54-4.225 2.54-6.785 0-6.093-5.373-11.028-12-11.028S4 8.852 4 14.945c0 6.092 5.373 11.027 12 11.027a12.9 12.9 0 0 0 4.285-.724.39.39 0 0 1 .438.137c1.003 1.354 2.569 2.306 4.31 2.693a.238.238 0 0 0 .235-.38 4.69 4.69 0 0 1 .2-5.97l-.009.002Zm-3.768-8.082-3.09 2.346 1.12 3.714a.35.35 0 0 1-.536.39L16 17.884l-3.186 2.214a.352.352 0 0 1-.536-.39l1.121-3.714-3.09-2.346a.35.35 0 0 1 .204-.63l3.877-.081 1.276-3.664a.351.351 0 0 1 .663 0l1.276 3.664 3.878.08a.351.351 0 0 1 .209.631"></path></svg>