<?xml version="1.0" encoding="UTF-8" standalone="no"?>
<svg
   xmlns:dc="http://purl.org/dc/elements/1.1/"
   xmlns:cc="http://creativecommons.org/ns#"
   xmlns:rdf="http://www.w3.org/1999/02/22-rdf-syntax-ns#"
   xmlns:svg="http://www.w3.org/2000/svg"
   xmlns="http://www.w3.org/2000/svg"
   viewBox="0 0 1561.0267 398.30399"
   height="398.30399"
   width="1561.0267"
   xml:space="preserve"
   id="svg2"
   version="1.1"><metadata
     id="metadata8"><rdf:RDF><cc:Work
         rdf:about=""><dc:format>image/svg+xml</dc:format><dc:type
           rdf:resource="http://purl.org/dc/dcmitype/StillImage" /></cc:Work></rdf:RDF></metadata><defs
     id="defs6"><clipPath
       id="clipPath18"
       clipPathUnits="userSpaceOnUse"><path
         id="path16"
         d="M 0,298.728 H 1170.767 V 0 H 0 Z" /></clipPath></defs><g
     transform="matrix(1.3333333,0,0,-1.3333333,0,398.304)"
     id="g10"><g
       id="g12"><g
         clip-path="url(#clipPath18)"
         id="g14"><g
           transform="translate(187.8108,30.8511)"
           id="g20"><path
             id="path22"
             style="fill:#dd6b48;fill-opacity:1;fill-rule:nonzero;stroke:none"
             d="m 0,0 -0.111,0.004 -43.368,-0.126 c -0.698,0.049 -1.356,0.375 -1.817,0.903 l -16.141,17.175 c -1.614,1.717 -0.799,4.535 1.482,5.126 l 57.713,14.961 c 1.923,0.499 3.813,-0.914 3.879,-2.9 L 2.725,2.267 C 2.533,0.929 1.402,-0.029 0,0 m -151.784,123.96 c -6.133,23.659 -2.686,48.291 9.707,69.358 12.393,21.067 32.248,36.046 55.908,42.179 23.659,6.135 48.29,2.686 69.358,-9.707 C 4.256,213.396 19.235,193.541 25.368,169.882 31.591,145.88 17.859,101.046 4.58,57.688 4.372,57.007 4.164,56.327 3.956,55.649 2.999,52.52 0.486,50.114 -2.681,49.293 l -66.003,-17.11 c -3.168,-0.821 -6.533,0.061 -8.889,2.331 -0.511,0.491 -1.021,0.983 -1.533,1.476 -32.672,31.448 -66.456,63.968 -72.678,87.97 m 187.801,48.682 c -6.871,26.504 -23.652,48.746 -47.25,62.629 -23.599,13.882 -51.191,17.743 -77.696,10.875 -26.504,-6.872 -48.746,-23.652 -62.629,-47.25 -13.883,-23.6 -17.745,-51.193 -10.875,-77.696 7.002,-27.012 41.925,-60.627 75.698,-93.135 2.492,-2.398 4.975,-4.789 7.44,-7.17 l 25.787,-27.433 c 2.461,-2.773 5.987,-4.44 9.694,-4.58 l 0.112,-0.004 43.413,0.126 c 7.376,-0.207 13.507,5.35 14.01,12.717 l 0.018,0.277 -1.119,33.821 c -0.208,6.31 0.629,12.61 2.478,18.647 v 0 c 13.726,44.82 27.921,91.165 20.919,118.176" /></g><g
           transform="translate(83.2317,166.8315)"
           id="g24"><path
             id="path26"
             style="fill:#dd6b48;fill-opacity:1;fill-rule:nonzero;stroke:none"
             d="m 0,0 c -5.921,22.841 7.845,46.241 30.686,52.162 3.586,0.93 7.186,1.374 10.73,1.374 19.681,0 37.635,-13.701 41.902,-34.066 C 85.379,9.631 83.877,-0.711 79.1,-9.555 73.379,-20.146 63.745,-27.683 52.162,-30.686 29.322,-36.604 5.921,-22.841 0,0 m 54.922,-41.334 c 13.909,3.605 25.581,12.412 32.867,24.796 7.285,12.385 9.313,26.865 5.707,40.774 C 86.052,52.949 56.637,70.253 27.926,62.811 -0.787,55.366 -18.091,25.952 -10.648,-2.76 c 6.274,-24.205 28.161,-40.301 52.081,-40.301 4.454,0 8.982,0.559 13.489,1.727" /></g><g
           transform="translate(292.4888,106.0982)"
           id="g28"><path
             id="path30"
             style="fill:#303030;fill-opacity:1;fill-rule:nonzero;stroke:none"
             d="m 0,0 c -1.084,0 -1.969,0.369 -2.655,1.106 -0.69,0.738 -1.033,1.598 -1.033,2.582 V 73.02 c 0,1.081 0.343,1.966 1.033,2.655 0.686,0.687 1.571,1.033 2.655,1.033 h 16.079 c 1.081,0 1.966,-0.346 2.655,-1.033 0.687,-0.689 1.033,-1.574 1.033,-2.655 v -5.015 c 1.965,2.655 4.72,4.989 8.26,7.007 3.541,2.014 7.72,3.072 12.539,3.171 11.408,0.295 19.226,-3.935 23.455,-12.686 2.261,3.736 5.481,6.785 9.663,9.146 4.178,2.36 8.777,3.54 13.793,3.54 5.112,0 9.71,-1.157 13.792,-3.466 4.08,-2.313 7.35,-5.853 9.809,-10.621 2.457,-4.772 3.689,-10.942 3.689,-18.514 V 3.688 c 0,-0.984 -0.346,-1.844 -1.034,-2.582 C 113.045,0.369 112.159,0 111.078,0 H 93.967 C 92.884,0 91.976,0.369 91.237,1.106 90.5,1.844 90.132,2.704 90.132,3.688 V 44.55 c 0,3.441 -0.494,6.17 -1.476,8.186 -0.984,2.015 -2.311,3.467 -3.983,4.352 -1.673,0.886 -3.591,1.328 -5.753,1.328 -1.77,0 -3.517,-0.442 -5.236,-1.328 C 71.962,56.203 70.586,54.751 69.553,52.736 68.521,50.72 68.004,47.991 68.004,44.55 V 3.688 C 68.004,2.704 67.658,1.844 66.972,1.106 66.282,0.369 65.397,0 64.316,0 H 47.204 C 46.121,0 45.236,0.369 44.549,1.106 43.86,1.844 43.517,2.704 43.517,3.688 V 44.55 c 0,3.441 -0.542,6.17 -1.623,8.186 -1.083,2.015 -2.459,3.467 -4.13,4.352 -1.674,0.886 -3.493,1.328 -5.458,1.328 -1.869,0 -3.665,-0.442 -5.385,-1.328 -1.722,-0.885 -3.098,-2.337 -4.13,-4.352 -1.033,-2.016 -1.549,-4.697 -1.549,-8.039 V 3.688 C 21.242,2.704 20.873,1.844 20.136,1.106 19.397,0.369 18.536,0 17.554,0 Z" /></g><g
           transform="translate(453.1304,121.44)"
           id="g32"><path
             id="path34"
             style="fill:#303030;fill-opacity:1;fill-rule:nonzero;stroke:none"
             d="m 0,0 c 2.851,0 5.433,0.613 7.744,1.844 2.31,1.228 4.13,3.146 5.458,5.753 1.327,2.604 1.991,5.875 1.991,9.809 v 2.066 L 2.655,17.259 c -4.624,-0.788 -7.991,-1.991 -10.105,-3.614 -2.115,-1.623 -3.171,-3.517 -3.171,-5.679 0,-1.674 0.49,-3.098 1.475,-4.278 C -8.164,2.508 -6.86,1.597 -5.237,0.959 -3.614,0.317 -1.87,0 0,0 m -6.934,-16.817 c -5.31,0 -10.056,1.009 -14.235,3.024 -4.181,2.015 -7.5,4.743 -9.957,8.188 -2.46,3.44 -3.688,7.325 -3.688,11.653 0,6.981 2.851,12.514 8.556,16.596 5.702,4.079 13.277,6.859 22.717,8.334 l 18.439,2.802 v 2.066 c 0,3.541 -0.737,6.244 -2.212,8.113 -1.475,1.867 -4.181,2.803 -8.114,2.803 -2.754,0 -4.992,-0.541 -6.712,-1.622 -1.721,-1.084 -3.074,-2.559 -4.056,-4.426 -0.885,-1.279 -2.117,-1.918 -3.688,-1.918 h -16.521 c -1.084,0 -1.918,0.318 -2.508,0.959 -0.591,0.639 -0.837,1.401 -0.738,2.287 0,1.77 0.664,3.81 1.992,6.121 1.327,2.31 3.367,4.597 6.121,6.859 2.753,2.262 6.293,4.131 10.621,5.607 4.327,1.475 9.589,2.212 15.784,2.212 6.293,0 11.702,-0.737 16.227,-2.212 4.522,-1.476 8.211,-3.541 11.064,-6.196 2.851,-2.656 4.942,-5.779 6.269,-9.368 1.328,-3.59 1.992,-7.548 1.992,-11.875 v -44.844 c 0,-0.984 -0.369,-1.844 -1.106,-2.581 -0.738,-0.738 -1.6,-1.107 -2.583,-1.107 H 19.619 c -1.083,0 -1.969,0.369 -2.655,1.107 -0.69,0.737 -1.033,1.597 -1.033,2.581 v 5.163 c -1.279,-1.869 -3.001,-3.591 -5.162,-5.163 -2.165,-1.575 -4.699,-2.828 -7.598,-3.762 -2.901,-0.933 -6.27,-1.401 -10.105,-1.401" /></g><g
           transform="translate(548.4244,124.3902)"
           id="g36"><path
             id="path38"
             style="fill:#303030;fill-opacity:1;fill-rule:nonzero;stroke:none"
             d="m 0,0 c 3.342,0 5.949,0.687 7.818,2.065 1.868,1.376 3.22,3.246 4.057,5.606 0.834,2.36 1.351,4.965 1.549,7.818 0.196,3.047 0.196,6.097 0,9.146 -0.198,2.851 -0.715,5.458 -1.549,7.818 -0.837,2.36 -2.189,4.228 -4.057,5.606 -1.869,1.376 -4.476,2.065 -7.818,2.065 -3.148,0 -5.705,-0.715 -7.671,-2.139 -1.969,-1.426 -3.392,-3.271 -4.278,-5.532 -0.885,-2.264 -1.427,-4.721 -1.622,-7.376 -0.1,-1.869 -0.148,-3.687 -0.148,-5.458 0,-1.769 0.048,-3.64 0.148,-5.605 0.096,-2.459 0.638,-4.746 1.622,-6.86 0.982,-2.116 2.457,-3.835 4.426,-5.163 C -5.558,0.664 -3.05,0 0,0 m -35.256,-46.32 c -1.084,0 -1.969,0.369 -2.655,1.106 -0.69,0.738 -1.033,1.6 -1.033,2.582 v 97.36 c 0,1.081 0.343,1.966 1.033,2.655 0.686,0.687 1.571,1.033 2.655,1.033 h 16.669 c 0.982,0 1.844,-0.346 2.581,-1.033 0.738,-0.689 1.107,-1.574 1.107,-2.655 v -5.311 c 2.36,2.951 5.407,5.434 9.146,7.45 3.736,2.015 8.309,3.024 13.719,3.024 4.916,0 9.242,-0.763 12.981,-2.287 3.737,-1.525 6.956,-3.761 9.662,-6.711 2.704,-2.951 4.794,-6.541 6.27,-10.769 1.475,-4.229 2.309,-9.098 2.508,-14.604 0.096,-1.968 0.147,-3.787 0.147,-5.458 0,-1.673 -0.051,-3.492 -0.147,-5.458 C 39.188,9.293 38.354,4.522 36.879,0.295 c -1.476,-4.23 -3.541,-7.818 -6.196,-10.769 -2.656,-2.95 -5.877,-5.237 -9.662,-6.859 -3.788,-1.623 -8.139,-2.435 -13.055,-2.435 -4.82,0 -9.024,0.863 -12.612,2.582 -3.592,1.72 -6.565,4.154 -8.925,7.302 v -32.748 c 0,-0.982 -0.346,-1.844 -1.033,-2.582 -0.689,-0.737 -1.575,-1.106 -2.656,-1.106 z" /></g><g
           transform="translate(633.3922,104.6226)"
           id="g40"><path
             id="path42"
             style="fill:#303030;fill-opacity:1;fill-rule:nonzero;stroke:none"
             d="m 0,0 c -6.394,0 -11.826,0.715 -16.3,2.14 -4.476,1.423 -8.114,3.171 -10.917,5.236 -2.803,2.065 -4.892,4.204 -6.268,6.417 -1.379,2.213 -2.117,4.153 -2.213,5.827 -0.1,1.081 0.244,1.966 1.032,2.655 0.786,0.687 1.623,1.033 2.508,1.033 h 16.816 c 0.295,0 0.566,-0.051 0.812,-0.148 0.244,-0.098 0.516,-0.295 0.811,-0.59 1.278,-0.689 2.556,-1.549 3.835,-2.582 1.278,-1.032 2.753,-1.942 4.426,-2.728 1.671,-0.788 3.687,-1.181 6.048,-1.181 2.752,0 5.064,0.566 6.933,1.697 1.868,1.129 2.803,2.729 2.803,4.794 0,1.573 -0.442,2.877 -1.327,3.909 -0.886,1.033 -2.681,2.041 -5.385,3.025 -2.706,0.981 -6.762,1.966 -12.17,2.95 -5.114,1.18 -9.589,2.729 -13.423,4.647 -3.836,1.918 -6.787,4.425 -8.851,7.523 -2.066,3.098 -3.099,6.859 -3.099,11.284 0,3.933 1.278,7.72 3.836,11.36 2.556,3.636 6.292,6.612 11.211,8.924 4.916,2.31 11.013,3.466 18.292,3.466 5.606,0 10.522,-0.663 14.751,-1.991 4.228,-1.327 7.768,-3.024 10.621,-5.089 2.852,-2.065 5.016,-4.182 6.491,-6.344 1.475,-2.164 2.261,-4.13 2.361,-5.9 C 33.73,59.35 33.436,58.49 32.748,57.753 32.06,57.015 31.273,56.646 30.389,56.646 H 15.047 c -0.395,0 -0.788,0.074 -1.181,0.221 -0.393,0.148 -0.737,0.319 -1.032,0.517 -1.18,0.59 -2.36,1.376 -3.54,2.36 -1.181,0.982 -2.559,1.867 -4.131,2.655 -1.574,0.787 -3.54,1.18 -5.9,1.18 -2.656,0 -4.721,-0.59 -6.196,-1.769 -1.475,-1.181 -2.213,-2.706 -2.213,-4.574 0,-1.279 0.417,-2.459 1.254,-3.54 0.834,-1.084 2.556,-2.065 5.163,-2.95 2.605,-0.886 6.662,-1.87 12.17,-2.951 6.786,-1.083 12.193,-2.828 16.227,-5.236 4.031,-2.412 6.907,-5.214 8.63,-8.409 1.719,-3.197 2.581,-6.564 2.581,-10.105 0,-4.72 -1.427,-8.901 -4.278,-12.538 C 29.747,7.867 25.594,5.039 20.136,3.024 14.678,1.01 7.966,0 0,0" /></g><g
           transform="translate(688.2672,106.0982)"
           id="g44"><path
             id="path46"
             style="fill:#303030;fill-opacity:1;fill-rule:nonzero;stroke:none"
             d="m 0,0 c -0.983,0 -1.795,0.318 -2.434,0.959 -0.64,0.639 -0.959,1.449 -0.959,2.434 v 69.922 c 0,0.982 0.319,1.793 0.959,2.434 0.639,0.639 1.451,0.959 2.434,0.959 h 6.639 c 0.981,0 1.793,-0.32 2.433,-0.959 0.639,-0.641 0.959,-1.452 0.959,-2.434 v -5.163 c 2.262,3.047 5.113,5.481 8.556,7.302 3.441,1.818 7.572,2.729 12.392,2.729 11.112,0.096 18.978,-4.425 23.602,-13.572 2.261,4.131 5.555,7.425 9.884,9.884 4.326,2.457 9.242,3.688 14.751,3.688 5.112,0 9.759,-1.18 13.94,-3.54 4.179,-2.361 7.473,-5.926 9.884,-10.695 2.408,-4.771 3.613,-10.746 3.613,-17.924 V 3.393 c 0,-0.985 -0.32,-1.795 -0.958,-2.434 C 105.054,0.318 104.243,0 103.261,0 h -6.933 c -0.984,0 -1.796,0.318 -2.434,0.959 -0.641,0.639 -0.959,1.449 -0.959,2.434 v 41.304 c 0,5.506 -0.789,9.833 -2.361,12.982 -1.574,3.145 -3.687,5.358 -6.343,6.637 -2.655,1.278 -5.557,1.918 -8.703,1.918 -2.558,0 -5.163,-0.64 -7.818,-1.918 C 65.055,63.037 62.865,60.824 61.146,57.679 59.424,54.53 58.563,50.203 58.563,44.697 V 3.393 c 0,-0.985 -0.32,-1.795 -0.958,-2.434 C 56.964,0.318 56.153,0 55.171,0 h -6.934 c -0.983,0 -1.795,0.318 -2.433,0.959 -0.641,0.639 -0.959,1.449 -0.959,2.434 v 41.304 c 0,5.506 -0.837,9.833 -2.508,12.982 -1.673,3.145 -3.835,5.358 -6.49,6.637 -2.656,1.278 -5.458,1.918 -8.409,1.918 -2.558,0 -5.163,-0.64 -7.818,-1.918 C 16.965,63.037 14.775,60.824 13.056,57.679 11.334,54.53 10.474,50.252 10.474,44.845 V 3.393 C 10.474,2.408 10.153,1.598 9.515,0.959 8.874,0.318 8.063,0 7.081,0 Z" /></g><g
           transform="translate(839.7632,115.687)"
           id="g48"><path
             id="path50"
             style="fill:#303030;fill-opacity:1;fill-rule:nonzero;stroke:none"
             d="m 0,0 c 4.031,0 7.72,0.859 11.063,2.581 3.343,1.72 5.975,4.4 7.893,8.04 1.918,3.637 2.876,8.21 2.876,13.719 v 4.13 L 4.721,25.962 c -6.984,-0.983 -12.244,-2.632 -15.784,-4.941 -3.541,-2.312 -5.311,-5.237 -5.311,-8.778 0,-2.754 0.811,-5.041 2.435,-6.859 1.622,-1.821 3.687,-3.172 6.195,-4.057 C -5.236,0.442 -2.655,0 0,0 m -3.098,-11.064 c -4.919,0 -9.392,0.984 -13.423,2.951 -4.034,1.966 -7.28,4.621 -9.737,7.966 -2.459,3.341 -3.687,7.128 -3.687,11.358 0,6.785 2.752,12.192 8.26,16.226 5.507,4.032 12.687,6.687 21.538,7.966 l 21.979,3.098 v 4.278 c 0,4.72 -1.353,8.409 -4.057,11.064 -2.705,2.655 -7.105,3.982 -13.202,3.982 -4.329,0 -7.869,-0.885 -10.621,-2.655 -2.754,-1.77 -4.672,-4.033 -5.753,-6.785 -0.59,-1.476 -1.623,-2.213 -3.097,-2.213 h -6.639 c -1.083,0 -1.895,0.318 -2.434,0.959 -0.542,0.639 -0.811,1.401 -0.811,2.286 0,1.476 0.564,3.294 1.696,5.458 1.13,2.162 2.877,4.278 5.237,6.344 2.36,2.064 5.384,3.809 9.073,5.236 3.687,1.425 8.186,2.139 13.497,2.139 5.9,0 10.865,-0.763 14.899,-2.286 4.031,-1.526 7.202,-3.566 9.515,-6.122 2.309,-2.559 3.982,-5.458 5.015,-8.704 1.033,-3.245 1.549,-6.541 1.549,-9.883 V -6.196 c 0,-0.985 -0.32,-1.795 -0.959,-2.434 -0.64,-0.641 -1.452,-0.959 -2.434,-0.959 h -6.785 c -1.084,0 -1.918,0.318 -2.508,0.959 -0.59,0.639 -0.885,1.449 -0.885,2.434 V 0.147 C 20.849,-1.623 19.127,-3.37 16.965,-5.09 14.8,-6.812 12.097,-8.238 8.852,-9.367 c -3.247,-1.13 -7.229,-1.697 -11.95,-1.697" /></g><g
           transform="translate(899.358,106.0982)"
           id="g52"><path
             id="path54"
             style="fill:#303030;fill-opacity:1;fill-rule:nonzero;stroke:none"
             d="m 0,0 c -0.983,0 -1.795,0.318 -2.434,0.959 -0.64,0.639 -0.959,1.449 -0.959,2.434 v 69.774 c 0,0.982 0.319,1.819 0.959,2.508 0.639,0.687 1.451,1.033 2.434,1.033 h 6.786 c 0.982,0 1.818,-0.346 2.508,-1.033 0.686,-0.689 1.032,-1.526 1.032,-2.508 v -6.49 c 1.967,3.342 4.67,5.849 8.113,7.523 3.442,1.671 7.621,2.508 12.54,2.508 h 5.752 c 0.983,0 1.793,-0.32 2.435,-0.959 0.638,-0.641 0.958,-1.452 0.958,-2.434 v -6.048 c 0,-0.985 -0.32,-1.77 -0.958,-2.361 -0.642,-0.59 -1.452,-0.885 -2.435,-0.885 h -8.85 c -5.311,0 -9.492,-1.548 -12.539,-4.646 -3.049,-3.098 -4.573,-7.302 -4.573,-12.612 V 3.393 C 10.769,2.408 10.423,1.598 9.736,0.959 9.047,0.318 8.211,0 7.229,0 Z" /></g><g
           transform="translate(954.8218,106.0982)"
           id="g56"><path
             id="path58"
             style="fill:#303030;fill-opacity:1;fill-rule:nonzero;stroke:none"
             d="m 0,0 c -0.983,0 -1.795,0.318 -2.434,0.959 -0.64,0.639 -0.959,1.449 -0.959,2.434 v 97.95 c 0,0.982 0.319,1.793 0.959,2.433 0.639,0.639 1.451,0.959 2.434,0.959 h 6.934 c 0.981,0 1.793,-0.32 2.433,-0.959 0.639,-0.64 0.959,-1.451 0.959,-2.433 V 50.008 L 39.387,74.2 c 1.18,0.982 2.089,1.646 2.729,1.991 0.639,0.344 1.697,0.517 3.171,0.517 h 7.818 c 0.886,0 1.624,-0.295 2.213,-0.886 0.59,-0.59 0.886,-1.327 0.886,-2.212 0,-0.394 -0.125,-0.837 -0.369,-1.328 -0.247,-0.493 -0.715,-0.984 -1.401,-1.474 L 20.357,42.484 58.121,5.753 C 59.302,4.769 59.892,3.884 59.892,3.098 59.892,2.213 59.597,1.476 59.007,0.885 58.416,0.295 57.679,0 56.794,0 h -7.671 c -1.476,0 -2.559,0.171 -3.245,0.517 -0.69,0.342 -1.574,1.006 -2.655,1.991 L 10.326,33.929 V 3.393 C 10.326,2.408 10.006,1.598 9.367,0.959 8.727,0.318 7.915,0 6.934,0 Z" /></g><g
           transform="translate(1033.5962,150.0581)"
           id="g60"><path
             id="path62"
             style="fill:#303030;fill-opacity:1;fill-rule:nonzero;stroke:none"
             d="m 0,0 h 40.419 v 0.442 c 0,4.425 -0.812,8.358 -2.434,11.801 -1.623,3.442 -3.96,6.17 -7.006,8.188 -3.05,2.014 -6.69,3.023 -10.917,3.023 -4.229,0 -7.843,-1.009 -10.842,-3.023 C 6.219,18.413 3.933,15.685 2.36,12.243 0.786,8.8 0,4.867 0,0.442 Z m 20.21,-45.436 c -10.23,0 -18.343,3.122 -24.341,9.368 -5.999,6.244 -9.293,14.775 -9.883,25.594 -0.099,1.277 -0.147,2.925 -0.147,4.942 0,2.014 0.048,3.662 0.147,4.941 0.392,6.982 2.015,13.104 4.868,18.366 2.851,5.26 6.76,9.317 11.728,12.17 4.964,2.851 10.791,4.278 17.48,4.278 7.472,0 13.742,-1.575 18.808,-4.72 5.065,-3.149 8.925,-7.623 11.58,-13.424 2.655,-5.805 3.983,-12.59 3.983,-20.357 v -2.508 c 0,-1.083 -0.321,-1.918 -0.958,-2.508 -0.642,-0.59 -1.453,-0.885 -2.435,-0.885 H 0 v -0.591 -0.737 c 0.196,-4.033 1.081,-7.795 2.655,-11.285 1.573,-3.491 3.859,-6.319 6.86,-8.481 2.999,-2.165 6.513,-3.246 10.547,-3.246 3.541,0 6.491,0.54 8.851,1.623 2.36,1.081 4.277,2.287 5.753,3.614 1.476,1.328 2.457,2.384 2.95,3.172 0.885,1.179 1.572,1.891 2.066,2.138 0.491,0.244 1.277,0.369 2.36,0.369 h 7.229 c 0.884,0 1.645,-0.272 2.286,-0.811 0.638,-0.542 0.908,-1.305 0.811,-2.287 -0.099,-1.475 -0.886,-3.271 -2.36,-5.384 -1.476,-2.116 -3.566,-4.204 -6.27,-6.269 -2.706,-2.066 -6.048,-3.762 -10.031,-5.089 -3.982,-1.328 -8.481,-1.993 -13.497,-1.993" /></g><g
           transform="translate(1108.3853,106.0982)"
           id="g64"><path
             id="path66"
             style="fill:#303030;fill-opacity:1;fill-rule:nonzero;stroke:none"
             d="m 0,0 c -0.983,0 -1.795,0.318 -2.434,0.959 -0.64,0.639 -0.959,1.449 -0.959,2.434 v 69.774 c 0,0.982 0.319,1.819 0.959,2.508 0.639,0.687 1.451,1.033 2.434,1.033 h 6.786 c 0.982,0 1.818,-0.346 2.508,-1.033 0.686,-0.689 1.032,-1.526 1.032,-2.508 v -6.49 c 1.967,3.342 4.67,5.849 8.113,7.523 3.442,1.671 7.621,2.508 12.54,2.508 h 5.752 c 0.983,0 1.793,-0.32 2.435,-0.959 0.638,-0.641 0.958,-1.452 0.958,-2.434 v -6.048 c 0,-0.985 -0.32,-1.77 -0.958,-2.361 -0.642,-0.59 -1.452,-0.885 -2.435,-0.885 h -8.85 c -5.311,0 -9.492,-1.548 -12.539,-4.646 -3.049,-3.098 -4.573,-7.302 -4.573,-12.612 V 3.393 C 10.769,2.408 10.423,1.598 9.736,0.959 9.047,0.318 8.211,0 7.229,0 Z" /></g><g
           transform="translate(298.7078,42.8045)"
           id="g68"><path
             id="path70"
             style="fill:#dd6b48;fill-opacity:1;fill-rule:nonzero;stroke:none"
             d="m 0,0 h 8.124 c 2.092,0 3.721,0.513 4.891,1.539 1.169,1.025 1.754,2.564 1.754,4.615 0,1.804 -0.523,3.281 -1.569,4.431 -1.046,1.147 -2.739,1.723 -5.076,1.723 l -8.124,0 z m -8.369,-23.075 c -0.451,0 -0.82,0.143 -1.108,0.43 -0.287,0.287 -0.43,0.657 -0.43,1.108 v 39.999 c 0,0.45 0.143,0.82 0.43,1.106 0.288,0.288 0.657,0.431 1.108,0.431 h 16.8 c 3.322,0 6.204,-0.513 8.645,-1.537 2.44,-1.027 4.348,-2.575 5.723,-4.647 1.373,-2.071 2.062,-4.645 2.062,-7.723 0,-3.118 -0.689,-5.691 -2.062,-7.722 -1.375,-2.031 -3.283,-3.538 -5.723,-4.522 -2.441,-0.986 -5.323,-1.477 -8.645,-1.477 H 0.184 v -13.908 c 0,-0.451 -0.143,-0.821 -0.43,-1.108 -0.287,-0.287 -0.657,-0.43 -1.107,-0.43 z" /></g><g
           transform="translate(339.6284,43.2973)"
           id="g72"><path
             id="path74"
             style="fill:#dd6b48;fill-opacity:1;fill-rule:nonzero;stroke:none"
             d="m 0,0 h 7.876 c 2.256,0 3.928,0.512 5.015,1.539 1.086,1.025 1.631,2.461 1.631,4.307 0,1.847 -0.534,3.302 -1.6,4.37 -1.067,1.065 -2.749,1.599 -5.046,1.599 l -7.876,0 z m -8.246,-23.568 c -0.452,0 -0.82,0.143 -1.108,0.431 -0.288,0.286 -0.431,0.656 -0.431,1.108 v 39.998 c 0,0.45 0.143,0.82 0.431,1.107 0.288,0.287 0.656,0.43 1.108,0.43 H 8.06 c 5.129,0 9.17,-1.179 12.124,-3.537 2.953,-2.361 4.43,-5.753 4.43,-10.184 0,-2.995 -0.718,-5.499 -2.154,-7.508 -1.437,-2.01 -3.364,-3.507 -5.785,-4.491 l 8.677,-15.385 c 0.124,-0.246 0.184,-0.472 0.184,-0.677 0,-0.329 -0.122,-0.626 -0.368,-0.892 -0.247,-0.267 -0.554,-0.4 -0.924,-0.4 h -6.83 c -0.739,0 -1.292,0.194 -1.661,0.585 -0.369,0.389 -0.638,0.749 -0.8,1.076 L 7.445,-7.815 H 0 v -14.214 c 0,-0.452 -0.145,-0.822 -0.431,-1.108 -0.288,-0.288 -0.656,-0.431 -1.108,-0.431 z" /></g><g
           transform="translate(388.733,27.0515)"
           id="g76"><path
             id="path78"
             style="fill:#dd6b48;fill-opacity:1;fill-rule:nonzero;stroke:none"
             d="m 0,0 c 2.378,0 4.338,0.728 5.876,2.186 1.539,1.455 2.348,3.784 2.431,6.984 0.082,1.804 0.124,3.496 0.124,5.076 0,1.579 -0.042,3.251 -0.124,5.016 -0.042,2.131 -0.431,3.875 -1.169,5.23 C 6.399,25.845 5.424,26.84 4.214,27.476 3.005,28.112 1.599,28.43 0,28.43 c -1.599,0 -3.016,-0.318 -4.246,-0.954 -1.231,-0.636 -2.205,-1.631 -2.922,-2.984 -0.719,-1.355 -1.119,-3.099 -1.201,-5.23 -0.041,-1.765 -0.062,-3.437 -0.062,-5.016 0,-1.58 0.021,-3.272 0.062,-5.076 0.123,-3.2 0.943,-5.529 2.461,-6.984 C -4.391,0.728 -2.421,0 0,0 m 0,-7.938 c -3.734,0 -6.954,0.616 -9.661,1.846 -2.707,1.232 -4.822,3.087 -6.338,5.569 -1.519,2.482 -2.339,5.61 -2.461,9.384 -0.042,1.763 -0.062,3.519 -0.062,5.262 0,1.743 0.02,3.517 0.062,5.323 0.122,3.691 0.953,6.799 2.491,9.322 1.539,2.523 3.672,4.42 6.4,5.692 2.728,1.272 5.917,1.908 9.569,1.908 3.609,0 6.779,-0.636 9.507,-1.908 2.728,-1.272 4.871,-3.169 6.43,-5.692 1.558,-2.523 2.379,-5.631 2.461,-9.322 0.083,-1.806 0.124,-3.58 0.124,-5.323 0,-1.743 -0.041,-3.499 -0.124,-5.262 C 18.276,5.087 17.454,1.959 15.937,-0.523 14.419,-3.005 12.306,-4.86 9.599,-6.092 6.892,-7.322 3.691,-7.938 0,-7.938" /></g></g></g></g></svg>