<?xml version="1.0" encoding="UTF-8" standalone="no"?>
<svg
   xmlns:dc="http://purl.org/dc/elements/1.1/"
   xmlns:cc="http://creativecommons.org/ns#"
   xmlns:rdf="http://www.w3.org/1999/02/22-rdf-syntax-ns#"
   xmlns:svg="http://www.w3.org/2000/svg"
   xmlns="http://www.w3.org/2000/svg"
   viewBox="0 0 413.33334 413.33334"
   height="413.33334"
   width="413.33334"
   xml:space="preserve"
   id="svg2"
   version="1.1"><metadata
     id="metadata8"><rdf:RDF><cc:Work
         rdf:about=""><dc:format>image/svg+xml</dc:format><dc:type
           rdf:resource="http://purl.org/dc/dcmitype/StillImage" /></cc:Work></rdf:RDF></metadata><defs
     id="defs6"><clipPath
       id="clipPath18"
       clipPathUnits="userSpaceOnUse"><path
         id="path16"
         d="M 0,310 H 310 V 0 H 0 Z" /></clipPath></defs><g
     transform="matrix(1.3333333,0,0,-1.3333333,0,413.33333)"
     id="g10"><g
       id="g12"><g
         clip-path="url(#clipPath18)"
         id="g14"><g
           transform="translate(218.6421,33.5947)"
           id="g20"><path
             id="path22"
             style="fill:#dd6b48;fill-opacity:1;fill-rule:nonzero;stroke:none"
             d="m 0,0 -0.111,0.004 -43.368,-0.126 c -0.698,0.049 -1.356,0.375 -1.817,0.903 l -16.141,17.175 c -1.614,1.717 -0.799,4.535 1.482,5.126 l 57.713,14.961 c 1.923,0.499 3.813,-0.914 3.879,-2.9 L 2.725,2.267 C 2.533,0.929 1.402,-0.029 0,0 m -151.784,123.96 c -6.133,23.659 -2.686,48.291 9.707,69.358 12.393,21.067 32.248,36.046 55.908,42.179 23.659,6.135 48.29,2.686 69.358,-9.707 C 4.256,213.396 19.235,193.541 25.368,169.882 31.591,145.88 17.859,101.046 4.58,57.688 4.372,57.007 4.164,56.327 3.956,55.649 2.999,52.52 0.486,50.114 -2.681,49.293 l -66.003,-17.11 c -3.168,-0.821 -6.533,0.061 -8.889,2.331 -0.511,0.491 -1.021,0.983 -1.533,1.476 -32.672,31.448 -66.456,63.968 -72.678,87.97 m 187.801,48.682 c -6.871,26.504 -23.652,48.746 -47.25,62.629 -23.599,13.882 -51.191,17.743 -77.696,10.875 -26.504,-6.872 -48.746,-23.652 -62.629,-47.25 -13.883,-23.6 -17.745,-51.193 -10.875,-77.696 7.002,-27.012 41.925,-60.627 75.698,-93.135 2.492,-2.398 4.975,-4.789 7.44,-7.17 l 25.787,-27.433 c 2.461,-2.773 5.987,-4.44 9.694,-4.58 l 0.112,-0.004 43.413,0.126 c 7.376,-0.207 13.507,5.35 14.01,12.717 l 0.018,0.277 -1.119,33.821 c -0.208,6.31 0.629,12.61 2.478,18.647 v 0 c 13.726,44.82 27.921,91.165 20.919,118.176" /></g><g
           transform="translate(114.063,169.5752)"
           id="g24"><path
             id="path26"
             style="fill:#dd6b48;fill-opacity:1;fill-rule:nonzero;stroke:none"
             d="m 0,0 c -5.921,22.841 7.845,46.241 30.686,52.162 3.586,0.93 7.186,1.374 10.73,1.374 19.681,0 37.635,-13.701 41.902,-34.066 C 85.379,9.631 83.877,-0.711 79.1,-9.555 73.379,-20.146 63.745,-27.683 52.162,-30.686 29.322,-36.604 5.921,-22.841 0,0 m 54.922,-41.334 c 13.909,3.605 25.581,12.412 32.867,24.796 7.285,12.385 9.313,26.865 5.707,40.774 C 86.052,52.949 56.637,70.253 27.926,62.811 -0.787,55.366 -18.091,25.952 -10.648,-2.76 c 6.274,-24.205 28.161,-40.301 52.081,-40.301 4.454,0 8.982,0.559 13.489,1.727" /></g></g></g></g></svg>